# xmcd
#
# Track frame offsets: 
#        150
#        14002
#        33882
#        52991
#        69382
#        83101
#        101242
#        123842
#        141904
#        165346
#        181564
#
# Disc length: 2668 seconds
#
# Revision: 1
# Processed by: cddbd v1.5.2PL0 Copyright (c) Steve Scherf et al.
# Submitted via: ExactAudioCopy v0.99pb5
#
DISCID=840a6a0b
DTITLE=Delta Moon - Black Cat Oil
DYEAR=2012
DGENRE=Blues
TTITLE0=Down And Dirty
TTITLE1=Blues In A Bottle
TTITLE2=Walk Out In The River
TTITLE3=Black Cat Oil
TTITLE4=Wishbone
TTITLE5=Black Coffee
TTITLE6=Neon Jesus
TTITLE7=Jukin'
TTITLE8=Sunshine
TTITLE9=Applejack
TTITLE10=Write Me A Few Of Your Lines
EXTD=
EXTT0=
EXTT1=
EXTT2=
EXTT3=
EXTT4=
EXTT5=
EXTT6=
EXTT7=
EXTT8=
EXTT9=
EXTT10=
PLAYORDER=
